<mxfile host="Electron" modified="2023-04-16T03:23:04.522Z" agent="Mozilla/5.0 (Windows NT 10.0; Win64; x64) AppleWebKit/537.36 (KHTML, like Gecko) draw.io/21.1.2 Chrome/106.0.5249.199 Electron/21.4.3 Safari/537.36" etag="fQldAp6qe4MdPHz1UKrE" version="21.1.2" type="device">
  <diagram name="Page-1" id="GJFbFbCdzpcTx4xRPd26">
    <mxGraphModel dx="1434" dy="884" grid="1" gridSize="10" guides="1" tooltips="1" connect="1" arrows="1" fold="1" page="1" pageScale="1" pageWidth="850" pageHeight="1100" math="0" shadow="0">
      <root>
        <mxCell id="0" />
        <mxCell id="1" parent="0" />
        <mxCell id="Nz4FOEHEcsnIwKSQ9U7X-1" value="SQL Server" style="image;aspect=fixed;html=1;points=[];align=center;fontSize=12;image=img/lib/azure2/databases/SQL_Server.svg;" vertex="1" parent="1">
          <mxGeometry x="970" y="456" width="68" height="68" as="geometry" />
        </mxCell>
        <mxCell id="Nz4FOEHEcsnIwKSQ9U7X-2" value="C# Server" style="image;html=1;image=img/lib/clip_art/computers/Server_128x128.png" vertex="1" parent="1">
          <mxGeometry x="830" y="456" width="80" height="80" as="geometry" />
        </mxCell>
        <mxCell id="Nz4FOEHEcsnIwKSQ9U7X-4" value="C# Client" style="outlineConnect=0;dashed=0;verticalLabelPosition=bottom;verticalAlign=top;align=center;html=1;shape=mxgraph.aws3.management_console;fillColor=#D2D3D3;gradientColor=none;" vertex="1" parent="1">
          <mxGeometry x="410" y="410" width="63" height="63" as="geometry" />
        </mxCell>
        <mxCell id="Nz4FOEHEcsnIwKSQ9U7X-5" value="C# Organizer" style="outlineConnect=0;dashed=0;verticalLabelPosition=bottom;verticalAlign=top;align=center;html=1;shape=mxgraph.aws3.management_console;fillColor=#D2D3D3;gradientColor=none;" vertex="1" parent="1">
          <mxGeometry x="410" y="519" width="63" height="63" as="geometry" />
        </mxCell>
        <mxCell id="Nz4FOEHEcsnIwKSQ9U7X-9" value="Public Internet" style="ellipse;shape=cloud;whiteSpace=wrap;html=1;" vertex="1" parent="1">
          <mxGeometry x="530" y="456" width="120" height="80" as="geometry" />
        </mxCell>
        <mxCell id="Nz4FOEHEcsnIwKSQ9U7X-14" value="" style="endArrow=none;html=1;rounded=0;exitX=0;exitY=0.574;exitDx=0;exitDy=0;exitPerimeter=0;entryX=1;entryY=0.5;entryDx=0;entryDy=0;" edge="1" parent="1" source="Nz4FOEHEcsnIwKSQ9U7X-1" target="Nz4FOEHEcsnIwKSQ9U7X-2">
          <mxGeometry width="50" height="50" relative="1" as="geometry">
            <mxPoint x="570" y="480" as="sourcePoint" />
            <mxPoint x="620" y="430" as="targetPoint" />
          </mxGeometry>
        </mxCell>
        <mxCell id="Nz4FOEHEcsnIwKSQ9U7X-20" value="" style="endArrow=none;html=1;rounded=0;entryX=0.07;entryY=0.4;entryDx=0;entryDy=0;entryPerimeter=0;exitX=1;exitY=0.5;exitDx=0;exitDy=0;exitPerimeter=0;" edge="1" parent="1" source="Nz4FOEHEcsnIwKSQ9U7X-4" target="Nz4FOEHEcsnIwKSQ9U7X-9">
          <mxGeometry width="50" height="50" relative="1" as="geometry">
            <mxPoint x="570" y="480" as="sourcePoint" />
            <mxPoint x="620" y="430" as="targetPoint" />
          </mxGeometry>
        </mxCell>
        <mxCell id="Nz4FOEHEcsnIwKSQ9U7X-21" value="" style="endArrow=none;html=1;rounded=0;exitX=1;exitY=0.5;exitDx=0;exitDy=0;exitPerimeter=0;entryX=0.07;entryY=0.4;entryDx=0;entryDy=0;entryPerimeter=0;" edge="1" parent="1" source="Nz4FOEHEcsnIwKSQ9U7X-5" target="Nz4FOEHEcsnIwKSQ9U7X-9">
          <mxGeometry width="50" height="50" relative="1" as="geometry">
            <mxPoint x="570" y="480" as="sourcePoint" />
            <mxPoint x="620" y="430" as="targetPoint" />
          </mxGeometry>
        </mxCell>
        <mxCell id="Nz4FOEHEcsnIwKSQ9U7X-24" value="Router Nat" style="image;aspect=fixed;html=1;points=[];align=center;fontSize=12;image=img/lib/azure2/networking/NAT.svg;" vertex="1" parent="1">
          <mxGeometry x="710" y="462" width="68" height="68" as="geometry" />
        </mxCell>
        <mxCell id="Nz4FOEHEcsnIwKSQ9U7X-27" value="" style="endArrow=none;html=1;rounded=0;exitX=1;exitY=0.544;exitDx=0;exitDy=0;exitPerimeter=0;" edge="1" parent="1" source="Nz4FOEHEcsnIwKSQ9U7X-24">
          <mxGeometry width="50" height="50" relative="1" as="geometry">
            <mxPoint x="760" y="520" as="sourcePoint" />
            <mxPoint x="830" y="499" as="targetPoint" />
          </mxGeometry>
        </mxCell>
        <mxCell id="Nz4FOEHEcsnIwKSQ9U7X-28" value="" style="endArrow=none;html=1;rounded=0;exitX=0.875;exitY=0.5;exitDx=0;exitDy=0;exitPerimeter=0;entryX=-0.015;entryY=0.485;entryDx=0;entryDy=0;entryPerimeter=0;" edge="1" parent="1" source="Nz4FOEHEcsnIwKSQ9U7X-9" target="Nz4FOEHEcsnIwKSQ9U7X-24">
          <mxGeometry width="50" height="50" relative="1" as="geometry">
            <mxPoint x="570" y="480" as="sourcePoint" />
            <mxPoint x="620" y="430" as="targetPoint" />
          </mxGeometry>
        </mxCell>
      </root>
    </mxGraphModel>
  </diagram>
</mxfile>
